<?xml version="1.0" encoding="UTF-8" standalone="no"?>
<svg width="33px" height="36px" viewBox="0 0 33 36" version="1.1" xmlns="http://www.w3.org/2000/svg" xmlns:xlink="http://www.w3.org/1999/xlink" xmlns:sketch="http://www.bohemiancoding.com/sketch/ns">
    <!-- Generator: Sketch 3.0.2 (7799) - http://www.bohemiancoding.com/sketch -->
    <title>Shape</title>
    <description>Created with Sketch.</description>
    <defs>
        <filter x="-50%" y="-50%" width="200%" height="200%" filterUnits="objectBoundingBox" id="filter-1">
            <feOffset dx="0" dy="0" in="SourceAlpha" result="shadowOffsetOuter1"></feOffset>
            <feGaussianBlur stdDeviation="2.5" in="shadowOffsetOuter1" result="shadowBlurOuter1"></feGaussianBlur>
            <feColorMatrix values="0 0 0 0 0   0 0 0 0 0   0 0 0 0 0  0 0 0 0.175 0" in="shadowBlurOuter1" type="matrix" result="shadowMatrixOuter1"></feColorMatrix>
            <feMerge>
                <feMergeNode in="shadowMatrixOuter1"></feMergeNode>
                <feMergeNode in="SourceGraphic"></feMergeNode>
            </feMerge>
        </filter>
    </defs>
    <g id="WEB-NAV" stroke="none" stroke-width="1" fill="none" fill-rule="evenodd" sketch:type="MSPage">
        <g id="NAV-EARN-REWARDS" sketch:type="MSArtboardGroup" transform="translate(-17.000000, -122.000000)">
            <g id="Slices" sketch:type="MSLayerGroup"></g>
            <path d="M22.984073,134.089333 C23.5460296,134.5465 24.1286383,134.950583 24.6927687,135.341667 C25.7884209,136.102167 26.8297252,136.823667 27.5253774,137.813833 C27.3471165,137.878833 27.1884209,137.999083 27.0786383,138.171333 C26.7188556,138.730333 26.7253774,139.484333 27.0927687,140.007583 C27.3482035,140.371583 27.7514643,140.574167 28.1916817,140.574167 C28.2982035,140.574167 28.4079861,140.56225 28.5166817,140.537333 C29.2645078,140.3705 29.7503774,139.672833 29.7536383,138.760667 C29.7536383,138.567833 29.7286383,138.385833 29.6873339,138.21575 C30.1112469,138.730333 30.5677687,139.230833 31.059073,139.724833 C31.0645078,139.731333 31.0710296,139.737833 31.0764643,139.745417 C31.6960296,140.470167 31.7949426,141.11475 31.4134209,142.072417 C31.3895078,142.132 31.3829861,142.197 31.3949426,142.25875 C31.6612469,143.700667 31.6938556,144.04625 31.1536383,144.9465 C31.11016,145.018 31.0427687,145.071083 30.9634209,145.096 C29.8308122,145.455667 28.8808122,145.863 28.2242904,146.2855 C28.1264643,146.348333 28.0666817,146.45775 28.0677687,146.573667 L28.0753774,149.657917 L26.4786383,149.657917 C26.3058122,149.657917 26.1536383,149.770583 26.1036383,149.93525 L25.2862469,152.607833 C25.259073,152.698833 25.2753774,152.799583 25.3318991,152.8765 C25.3895078,152.9545 25.4797252,153 25.5764643,153 L40.91016,153 C41.0058122,153 41.0971165,152.9545 41.1547252,152.8765 C41.2123339,152.799583 41.2286383,152.699917 41.2014643,152.607833 L40.384073,149.93525 C40.334073,149.770583 40.1808122,149.657917 40.0079861,149.657917 L38.4199426,149.657917 L38.4199426,146.572583 C38.4199426,146.45775 38.36016,146.348333 38.2623339,146.2855 C37.6068991,145.861917 36.6568991,145.454583 35.5232035,145.096 C35.4427687,145.071083 35.3753774,145.018 35.3329861,144.9465 C34.7927687,144.04625 34.8253774,143.700667 35.0916817,142.25875 C35.1025513,142.195917 35.0971165,142.130917 35.0721165,142.072417 C34.6905948,141.113667 34.7895078,140.470167 35.409073,139.745417 C35.4145078,139.738917 35.4199426,139.731333 35.4264643,139.724833 C35.9188556,139.230833 36.3753774,138.730333 36.7982035,138.216833 C36.7579861,138.386917 36.7318991,138.568917 36.7318991,138.76175 C36.73516,139.673917 37.2210296,140.371583 37.9688556,140.538417 C38.0786383,140.563333 38.1873339,140.57525 38.2938556,140.57525 C38.734073,140.57525 39.1373339,140.371583 39.3938556,140.008667 C39.7612469,139.4865 39.7666817,138.730333 39.4068991,138.172417 C39.2971165,138.00125 39.1395078,137.879917 38.9612469,137.816 C39.6568991,136.825833 40.6992904,136.10325 41.7949426,135.343833 C42.359073,134.95275 42.9405948,134.54975 43.5025513,134.092583 C44.8188556,133.021167 45.5232035,131.677833 45.48516,130.31175 C45.4623339,129.493833 45.1047252,128.7095 44.5068991,128.1635 C43.9416817,127.647833 43.2068991,127.388917 42.4373339,127.434417 C41.7145078,127.47775 41.0579861,127.772417 40.5677687,128.236083 C40.5884209,127.947917 40.6058122,127.657583 40.6177687,127.358583 C40.6210296,127.265417 40.5862469,127.1755 40.5221165,127.108333 C40.4579861,127.041167 40.3721165,127 40.2786383,127 L34.2982035,127 L32.1927687,127 L26.2123339,127 C26.1188556,127 26.0308122,127.037917 25.9655948,127.105083 C25.9003774,127.17225 25.8666817,127.26325 25.8699426,127.355333 C25.8818991,127.654333 25.8992904,127.944667 25.9199426,128.232833 C25.4297252,127.769167 24.7732035,127.4745 24.0503774,127.431167 C23.2786383,127.385667 22.5449426,127.644583 21.9797252,128.16025 C21.3808122,128.707333 21.0242904,129.490583 21.0014643,130.3085 C20.9634209,131.675667 21.6677687,133.019 22.984073,134.089333 L22.984073,134.089333 Z M40.0514643,131.714667 C40.2123339,132.143667 40.6775513,132.38525 41.1275513,132.259583 C41.6025513,132.127417 41.8797252,131.636667 41.7471165,131.16325 C41.7221165,131.073333 41.6949426,130.983417 41.6677687,130.892417 C41.5568991,130.524083 41.4612469,130.2045 41.5297252,129.962917 C41.6503774,129.533917 42.0503774,129.23925 42.5460296,129.208917 C42.8373339,129.1905 43.0927687,129.280417 43.3036383,129.47325 C43.5449426,129.693167 43.6938556,130.024667 43.7036383,130.358333 C43.734073,131.441667 42.88516,132.2975 42.3764643,132.71025 C41.8677687,133.124083 41.3134209,133.508667 40.7775513,133.88025 C40.0373339,134.39375 39.284073,134.917 38.6079861,135.542083 C39.2329861,134.381833 39.7134209,133.124083 40.0514643,131.714667 L40.0514643,131.714667 Z M31.0112469,131.720083 L32.2264643,131.544583 C32.3971165,131.52075 32.5460296,131.412417 32.6221165,131.2575 L33.1655948,130.160083 C33.2655948,129.958583 33.5536383,129.958583 33.6547252,130.160083 L34.1982035,131.2575 C34.2742904,131.412417 34.4232035,131.519667 34.5938556,131.544583 L35.81016,131.720083 C36.0329861,131.752583 36.1221165,132.026667 35.9612469,132.182667 L35.0818991,133.037417 C34.9579861,133.157667 34.9014643,133.331 34.9308122,133.501083 L35.1384209,134.706833 C35.1764643,134.928917 34.9427687,135.097917 34.7427687,134.992833 L33.6558122,134.423 C33.5036383,134.342833 33.3199426,134.342833 33.1666817,134.423 L32.0797252,134.992833 C31.8797252,135.097917 31.6460296,134.927833 31.684073,134.706833 L31.8916817,133.501083 C31.9210296,133.331 31.8645078,133.157667 31.7405948,133.037417 L30.8612469,132.182667 C30.6982035,132.026667 30.7873339,131.752583 31.0112469,131.720083 L31.0112469,131.720083 Z M23.1862469,129.47325 C23.3971165,129.280417 23.6536383,129.191583 23.9449426,129.208917 C24.4405948,129.238167 24.8405948,129.533917 24.9612469,129.961833 C25.0286383,130.2045 24.9329861,130.524083 24.8221165,130.892417 C24.7949426,130.982333 24.7688556,131.07225 24.7427687,131.162167 C24.61016,131.635583 24.8873339,132.126333 25.3623339,132.2585 C25.8123339,132.384167 26.2775513,132.142583 26.4384209,131.713583 C26.7764643,133.124083 27.2579861,134.381833 27.8808122,135.542083 C27.2058122,134.917 26.4514643,134.39375 25.7112469,133.88025 C25.1753774,133.508667 24.6221165,133.125167 24.1134209,132.71025 C23.6047252,132.296417 22.7558122,131.440583 22.7862469,130.358333 C22.7960296,130.024667 22.9460296,129.693167 23.1862469,129.47325 L23.1862469,129.47325 Z" id="Shape" fill="#FFFFFF" filter="url(#filter-1)" sketch:type="MSShapeGroup"></path>
        </g>
    </g>
</svg>