<?xml version="1.0" encoding="utf-8"?>
<!-- Generator: Adobe Illustrator 16.0.0, SVG Export Plug-In . SVG Version: 6.00 Build 0)  -->
<!DOCTYPE svg PUBLIC "-//W3C//DTD SVG 1.1//EN" "http://www.w3.org/Graphics/SVG/1.1/DTD/svg11.dtd">
<svg version="1.1" id="Layer_1" xmlns="http://www.w3.org/2000/svg" xmlns:xlink="http://www.w3.org/1999/xlink" x="0px" y="0px"
	 width="323.649px" height="65.375px" viewBox="0 0 323.649 65.375" enable-background="new 0 0 323.649 65.375"
	 xml:space="preserve">
<path fill="#E01B51" d="M97.764,0.937l-0.389,1.25l-2.018,7.098h-5.662c-2.073,0.02-4.089,1.558-4.893,3.519l0.244-0.884
	l2.128-7.367c0.786-2.02,2.727-3.48,4.801-3.616H97.764z"/>
<path fill="#010101" d="M83.252,6.322c0.353,0.405,0.579,0.943,0.486,1.5l-0.897,3.174l-3.325-0.018
	c0.185-0.751,0.43-1.464,0.579-2.252c0.036-0.134-0.038-0.269-0.076-0.384c-0.616-0.578-1.513-0.788-2.314-0.52
	c-1.083,0.212-1.926,1.289-2.411,2.25l-0.373,0.906l-2.019,7.02c-0.205,0.673-0.503,1.5-0.019,2.135c0.823,1,2.299,0.98,3.4,0.653
	c0.298-0.115,0.69-0.172,0.86-0.442c0.299-1.115,0.673-2.229,0.953-3.345l-0.075-0.04h-2.409l0.822-2.961l0.055-0.04
	c-0.019-0.018-0.037-0.018-0.037-0.058c1.793-0.019,3.679,0,5.529,0l-0.036,0.251l-2.598,8.925
	c-2.671,0.711-6.071,1.288-8.687,0.078c-1.457-0.925-1.755-2.693-1.494-4.29l0.223-0.886l2.244-7.656
	c0.652-2.075,1.904-4.327,4.09-5.018c2-0.5,4.334-0.406,6.258,0.173C82.449,5.65,82.877,5.919,83.252,6.322"/>
<path fill="#010101" d="M55.305,9.265c0.394,0.462,0.562,1.001,0.394,1.597l-0.917,3.116c-1.157,0.057-2.258-0.02-3.381,0
	c0.168-0.672,0.394-1.308,0.562-2.001c0.037-0.441-0.244-0.827-0.579-1.037c-0.692-0.347-1.569-0.153-2.149,0.346
	c-0.803,0.653-1.176,1.577-1.176,2.596c0.019,0.385,0.186,0.692,0.43,0.981c1.102,1.038,2.278,1.979,3.418,3.001
	c0.671,0.729,0.991,1.771,0.785,2.75c-0.242,2.269-1.494,4.597-3.643,5.559c-1.998,0.904-4.632,1.23-6.707,0.288
	c-1.082-0.615-1.661-1.769-1.53-3.001c0.205-1.039,0.578-2.019,0.822-3.018c1.025-0.021,2.279,0,3.418,0
	c-0.131,1-1.103,2.365,0.038,3.193c0.691,0.519,1.681,0.192,2.334-0.193c0.859-0.614,1.326-1.596,1.532-2.558
	c0.112-1.039-1.009-1.384-1.552-2.057c-1.176-1.252-3.137-2.08-3.212-4.021c0-1.906,0.747-3.674,1.925-5.137
	c1.999-2.058,5.453-2.23,7.977-1.211C54.54,8.632,54.97,8.918,55.305,9.265"/>
<path fill="#010101" d="M64.889,8.304c1.345,0.116,2.746,0.539,3.383,1.904c0.615,1.251,0.28,2.788-0.057,4.079l-2.747,9.347
	c-0.616,1.693-2.299,2.826-4.053,2.848h-7.94l0.056-0.23l2.223-7.694l2.989-10.271L64.889,8.304z M61.507,11.246l-0.037,0.04
	l-3.512,12.02l0.038,0.059c1.028,0.018,2.036,0.057,3.138,0c0.355-0.076,0.672-0.289,0.953-0.596
	c0.505-0.845,0.634-1.808,0.934-2.732l1.924-6.54c0.111-0.422,0.316-0.904,0.13-1.346c-0.149-0.403-0.578-0.807-1.008-0.865
	L61.507,11.246z"/>
<path fill="#010101" d="M93.582,13.9c-0.243,1.001-0.559,2.021-0.858,3.041c-1.831,0.019-3.586,0.039-5.362,0.019
	c-0.449,1.405-0.86,2.809-1.252,4.23l0.075,0.039h4.987l0.02,0.041c-0.318,1.058-0.615,2.151-0.952,3.229l-5.064,0.02
	c-0.522,1.615-0.97,3.193-1.419,4.81l0.019,0.038c1.887,0.039,3.755,0,5.661,0.039l-0.879,3.116l-0.69,0.038h-8.687l0.057-0.366
	l2.763-9.559l2.485-8.712l0.038-0.021h8.5h0.558V13.9z"/>
<path fill="#E01B51" d="M76.47,33.175c-0.728,1.849-2.54,3.366-4.482,3.577l-1.14,0.076L36.776,36.8l2.465-8.28
	c1.625-0.056,34.559,0,34.559,0c2.147-0.039,4.221-1.597,5.025-3.652L76.47,33.175z"/>
<path fill="#085DAA" d="M2.264,53.584L0,59.818h0.855l0.667-1.856H3.91l0.631,1.856h0.896l-2.186-6.234H2.264z M2.753,54.561
	l0.916,2.732H1.734L2.753,54.561z"/>
<path fill="#085DAA" d="M27.756,40.489c1.909,3.764,0.601,7.097-0.056,8.377c1.346-1.57,1.435-3.095,1.435-3.095
	s0.248,0.485,0.327,1.029c0.694-1.904-0.043-3.503-0.043-3.503s1.648,2.556-0.146,4.817c-0.043-0.354-0.116-0.633-0.116-0.633
	c-0.36,0.668-1.127,1.609-1.963,2.265c2.032-0.567,2.957-1.57,3.359-2.896C31.57,43.5,27.756,40.489,27.756,40.489"/>
<path fill="#E01B51" d="M30.327,48.814c-0.041-0.032-0.086-0.013-0.105,0.009c-0.047,0.043-2.367,2.524-6.829,1.928
	c-1.457-0.192-2.708-0.531-3.713-0.784c0.325-0.656,0.558-1.594-0.402-2.137c-1.374-0.775-3.241,0.564-3.347,0.744
	c-0.042,0.068,0.014,0.107,0.073,0.111c0.24,0.023,2.084-0.025,2.875,1.088c-1.959-0.482-2.194,0.354-1.905,1.211
	c0.17,0.519,0.613,1.471,1.251,2.401c0,0,0.043,0.06,0,0.113c-0.021,0.028-0.058,0.047-0.093,0.06
	c-3.096,1.034-5.393,4.092-6.857,6.709c-0.707-1.359-1.109-2.902-1.109-4.537c0-5.476,4.467-9.912,9.977-9.912
	c1.059,0,2.076,0.166,3.032,0.467l0.007-0.023c-1.169-0.447-2.441-0.695-3.77-0.695c-5.808,0-10.515,4.709-10.515,10.518
	c0,2.066,0.597,3.995,1.627,5.62c-0.747,1.542-1.142,2.696-1.17,2.787c-0.13,0.403-0.153,0.739,0.096,0.854
	c0.224,0.098,0.417-0.031,0.777-0.522c1.142-1.571,5.989-8.763,9.355-6.488c1.673,1.133,2.201,2.181,1.226,3.159
	c-0.515,0.517-1.743,1.244-2.484,1.594c-1.146,0.542-1.766,0.65-1.67,1.055c0.087,0.373,0.567,0.369,2.498-0.127
	c2.215-0.574,7.246-1.885,4.648-6.147c-1.174-1.927-2.376-3.384-3.182-4.577c-0.021-0.032-0.027-0.062-0.004-0.1
	c0.027-0.039,0.1-0.032,0.1-0.032c8.543-0.636,9.586-4.097,9.616-4.212C30.34,48.92,30.369,48.848,30.327,48.814"/>
<path fill="#085DAA" d="M37.087,53.036h-0.266l-0.361-1.04c-0.226-0.172-0.771-0.32-1.345-0.32c-0.905,0-1.597,0.385-1.597,1.411
	c0,0.894,0.812,1.399,1.851,1.813c1.08,0.426,2.358,1.078,2.358,2.744c0,1.625-1.212,2.504-2.878,2.504
	c-1.172,0-2.104-0.519-2.385-0.717V57.99h0.322l0.292,1.119c0.347,0.31,1.039,0.588,1.837,0.588c1.172,0,1.839-0.641,1.839-1.748
	c0-0.783-0.521-1.396-1.799-1.917c-1.185-0.479-2.41-1.064-2.41-2.624c0-1.239,0.853-2.184,2.558-2.184
	c0.932,0,1.599,0.226,1.984,0.398V53.036z"/>
<path fill="#085DAA" d="M39.685,56.271c0.12-1.116,0.653-2.078,1.478-2.078c1.013,0,1.306,1.291,1.306,2.078H39.685z M39.659,56.711
	h3.891c0.052-0.972-0.32-2.889-2.359-2.889c-1.531,0-2.636,1.253-2.636,3.131c0,1.796,1.131,3.168,2.997,3.168
	c0.626,0,1.224-0.171,1.811-0.533l-0.132-0.291c-0.575,0.291-0.973,0.348-1.52,0.348C40.431,59.645,39.672,58.404,39.659,56.711"/>
<path fill="#085DAA" d="M54.778,60.004h-2.013v-4.225c0-0.785-0.16-1.438-0.917-1.438c-0.467,0-1.28,0.319-1.787,0.92v4.263
	l0.758,0.227v0.255h-1.771V55.78c0-0.785-0.187-1.438-0.892-1.438c-0.533,0-1.385,0.373-1.825,0.92v4.303l0.746,0.187v0.255h-2.692
	v-0.255l0.934-0.213v-4.997l-1.092-0.212v-0.25c0.705-0.081,1.173-0.136,1.918-0.095l0.146,0.679
	c0.667-0.545,1.425-0.838,2.146-0.838c0.798,0,1.239,0.426,1.424,0.985c0.505-0.494,1.413-0.985,2.186-0.985
	c1.196,0,1.729,0.666,1.729,2.155v3.559l1.001,0.213L54.778,60.004L54.778,60.004z"/>
<path fill="#085DAA" d="M57.106,55.541c0.321-0.668,0.855-1.173,1.506-1.173c0.839,0,1.319,0.878,1.319,2.585
	c0,1.637-0.441,2.744-1.72,2.744c-0.239,0-0.719-0.04-1.106-0.279L57.106,55.541L57.106,55.541z M57.068,54.859
	c-0.04-0.332-0.147-0.731-0.187-0.879c-0.733-0.078-1.171,0.016-1.878,0.096v0.25l1.091,0.214v7.78l-0.997,0.226V62.8h3.01v-0.28
	l-1.001-0.186v-2.479c0.268,0.147,0.706,0.265,1.173,0.265c1.465,0,2.797-1.118,2.797-3.157c0-1.664-0.56-3.143-2.145-3.143
	C58.28,53.82,57.521,54.182,57.068,54.859"/>
<path fill="#085DAA" d="M63.835,59.55l0.985,0.185v0.27h-2.997v-0.27l0.998-0.197v-4.998l-1.092-0.212v-0.251
	c0.706-0.08,1.132-0.188,1.864-0.107c0.054,0.174,0.187,0.453,0.214,0.801c0.519-0.545,1.119-0.945,1.985-0.945
	c0.186,0,0.359,0.012,0.506,0.064l-0.388,0.825c-0.064-0.038-0.265-0.132-0.544-0.132c-0.386,0-0.946,0.132-1.531,0.746V59.55z"/>
<path fill="#085DAA" d="M70.295,58.523c-0.307,0.735-0.825,1.078-1.319,1.078c-0.612,0-1.172-0.477-1.172-1.306
	c0-1.037,0.771-1.557,1.706-1.557h0.786L70.295,58.523L70.295,58.523z M72.24,59.657l-0.933-0.188v-3.624
	c0-1.52-1.026-2.024-2.105-2.024c-0.812,0-1.651,0.293-2.104,0.652l0.281,1.199l0.292-0.052l0.067-0.867
	c0.227-0.228,0.746-0.414,1.267-0.414c0.65,0,1.291,0.334,1.291,1.291v0.667h-0.453c-1.478,0-3.078,0.439-3.078,2.199
	c0,0.972,0.894,1.637,1.84,1.637c0.638,0,1.292-0.292,1.731-0.958l0.252,0.812c0,0,0.707,0.068,1.653-0.079L72.24,59.657
	L72.24,59.657z"/>
<polygon fill="#085DAA" points="80.952,58.871 80.606,60.002 74.996,60.002 74.996,59.698 75.929,59.509 75.929,51.783 
	74.996,51.585 74.996,51.277 80.272,51.277 80.62,52.396 80.338,52.518 79.912,51.796 77.007,51.796 77.007,55.1 79.832,55.1 
	79.832,55.621 77.007,55.621 77.007,59.482 80.232,59.482 80.671,58.75 "/>
<path fill="#085DAA" d="M88.224,60.004h-1.958v-4.236c0-1.107-0.306-1.44-1.013-1.44c-0.399,0-1.278,0.386-1.705,0.919v4.318
	l0.747,0.186v0.255h-2.691V59.75l0.933-0.213V54.54l-1.093-0.212v-0.25c0.707-0.081,1.186-0.176,1.918-0.109l0.147,0.693
	c0.454-0.398,1.293-0.838,2.039-0.838c1.171,0,1.73,0.627,1.73,2.117v3.597l0.946,0.213V60.004z"/>
<path fill="#085DAA" d="M89.877,56.271c0.119-1.116,0.651-2.078,1.476-2.078c1.014,0,1.308,1.291,1.308,2.078H89.877z
	 M89.849,56.711h3.888c0.054-0.972-0.32-2.889-2.355-2.889c-1.533,0-2.639,1.253-2.639,3.131c0,1.796,1.134,3.168,2.998,3.168
	c0.626,0,1.226-0.171,1.812-0.533l-0.135-0.291c-0.571,0.291-0.971,0.348-1.517,0.348C90.622,59.645,89.863,58.404,89.849,56.711"/>
<path fill="#085DAA" d="M96.523,59.55l0.985,0.185v0.27h-2.997v-0.27l0.999-0.197v-4.998l-1.092-0.212v-0.251
	c0.707-0.08,1.131-0.188,1.865-0.107c0.052,0.174,0.187,0.453,0.213,0.801c0.522-0.545,1.12-0.945,1.985-0.945
	c0.186,0,0.359,0.012,0.505,0.064L98.6,54.714c-0.065-0.038-0.265-0.132-0.546-0.132c-0.387,0-0.947,0.132-1.531,0.746V59.55z"/>
<path fill="#085DAA" d="M100.398,55.885c0-0.945,0.626-1.611,1.359-1.611c0.746,0,1.332,0.666,1.332,1.611
	c0,1.227-0.691,1.693-1.332,1.693C101.144,57.578,100.398,57.096,100.398,55.885 M99.93,57.312
	c-0.383,0.279-0.636,0.718-0.636,1.145c0,0.585,0.347,1.146,1.051,1.318c-0.798,0.201-1.292,0.787-1.292,1.425
	c0,0.786,0.76,1.587,2.677,1.587c2.105,0,3.078-1.225,3.078-2.346c0-0.572-0.253-1.116-0.747-1.449h-2.649
	c-1.092,0-1.466-0.402-1.466-0.854c0-0.227,0.121-0.453,0.28-0.584c0.495,0.344,1.106,0.478,1.532,0.478
	c1.64,0,2.332-1.077,2.332-2.116c0-0.547-0.2-1.04-0.584-1.427l1.079-0.199v-0.36h-1.841c-0.251-0.053-0.704-0.105-0.985-0.105
	c-1.503,0-2.357,0.892-2.357,2.093C99.4,56.525,99.626,56.979,99.93,57.312 M103.741,59.896c0.268,0.158,0.414,0.465,0.414,0.797
	c0,0.734-0.65,1.627-2.13,1.627c-1.479,0-1.958-0.613-1.958-1.228c0-0.518,0.372-1.038,0.813-1.198h2.861V59.896z"/>
<path fill="#085DAA" d="M106.219,62.387c0.521-0.266,1.067-0.626,1.28-1.211l0.482-1.347l-1.961-5.313l-0.879-0.293v-0.255h2.584
	v0.255l-0.654,0.228l1.398,4.114l1.626-4.597h1.399v0.255L110.47,54.5l-2.344,6.449c-0.442,1.197-0.787,1.492-1.601,1.971
	L106.219,62.387z"/>
<path fill="#085DAA" d="M117.649,59.93v-0.662l-0.018-0.019c-0.321,0.531-0.713,0.812-1.443,0.812c-0.669,0-1.476-0.324-1.476-1.41
	v-3.269h0.764V58.4c0,0.748,0.383,0.998,0.876,0.998c0.966,0,1.253-0.853,1.253-1.513v-2.503h0.765v4.547H117.649L117.649,59.93z"/>
<path fill="#085DAA" d="M120.585,56.02v2.953c0,0.358,0.303,0.358,0.461,0.358h0.269v0.599c-0.276,0.028-0.495,0.062-0.573,0.062
	c-0.756,0-0.922-0.428-0.922-0.975V56.02h-0.616v-0.638h0.616v-1.268h0.765v1.268h0.729v0.638H120.585z"/>
<path fill="#085DAA" d="M122.261,59.93h0.765v-4.547h-0.765V59.93z M122.261,54.559h0.765v-0.871h-0.765V54.559z"/>
<rect x="124.264" y="53.688" fill="#085DAA" width="0.766" height="6.242"/>
<path fill="#085DAA" d="M126.267,59.93h0.766v-4.547h-0.766V59.93z M126.267,54.559h0.766v-0.871h-0.766V54.559z"/>
<path fill="#085DAA" d="M129.193,56.02v2.953c0,0.358,0.305,0.358,0.462,0.358h0.269v0.599c-0.277,0.028-0.498,0.062-0.574,0.062
	c-0.755,0-0.92-0.428-0.92-0.975V56.02h-0.618v-0.638h0.618v-1.268h0.763v1.268h0.731v0.638H129.193z"/>
<path fill="#085DAA" d="M133.695,55.383h0.844c-0.531,1.487-1.051,2.975-1.634,4.46c-0.721,1.843-0.8,1.947-1.781,1.947
	c-0.114,0-0.201-0.035-0.323-0.067v-0.699c0.096,0.035,0.254,0.082,0.46,0.082c0.401,0,0.444-0.114,0.809-1.055l-1.687-4.667h0.872
	l1.208,3.703h0.017L133.695,55.383z"/>
<path fill="#010101" d="M103.454,3.388c-0.239-0.847-0.761-1.292-1.641-1.292c-1.411,0-2.618,1.444-2.618,3.746
	c0,1.435,0.707,2.195,1.793,2.195c0.88,0,1.52-0.575,1.965-1.37l-0.847-0.683c-0.238,0.478-0.565,0.836-0.934,0.836
	c-0.467,0-0.673-0.424-0.673-1.107c0-1.164,0.413-2.401,1.119-2.401c0.381,0,0.564,0.305,0.694,0.771L103.454,3.388z M105.354,8.037
	c1.444,0,2.574-1.51,2.574-3.715c0-1.455-0.728-2.226-1.825-2.226c-1.455,0-2.562,1.509-2.562,3.725
	C103.54,7.21,104.256,8.037,105.354,8.037 M106.625,4.366c0,1.107-0.348,2.455-1.119,2.455c-0.467,0-0.673-0.402-0.673-1.064
	c0-1.217,0.412-2.444,1.141-2.444C106.429,3.312,106.625,3.714,106.625,4.366 M112.172,7.916l0.664-3.735
	c0.055-0.282,0.087-0.576,0.087-0.815c-0.01-0.825-0.358-1.27-1.238-1.27c-0.401,0-0.782,0.206-1.119,0.511l0.077-0.391h-1.282
	l-1.01,5.701h1.281l0.728-4.147c0.206-0.239,0.521-0.478,0.804-0.478c0.303,0,0.434,0.119,0.434,0.466
	c0,0.119-0.022,0.283-0.055,0.467l-0.651,3.692L112.172,7.916L112.172,7.916z M117.136,7.916l0.661-3.735
	c0.054-0.282,0.088-0.576,0.088-0.815c-0.011-0.825-0.359-1.27-1.238-1.27c-0.402,0-0.782,0.206-1.119,0.511l0.076-0.391h-1.281
	l-1.01,5.701h1.282l0.729-4.147c0.205-0.239,0.52-0.478,0.803-0.478c0.303,0,0.435,0.119,0.435,0.466
	c0,0.119-0.022,0.283-0.055,0.467l-0.651,3.692L117.136,7.916L117.136,7.916z M122.664,5.549c0.086-0.413,0.141-0.859,0.141-1.249
	c0-1.228-0.509-2.205-1.704-2.205c-1.412,0-2.597,1.455-2.597,3.746c0,1.315,0.631,2.195,1.826,2.195
	c0.814,0,1.455-0.338,1.966-1.032L121.48,6.32c-0.283,0.337-0.543,0.5-0.957,0.5c-0.499,0-0.802-0.391-0.739-1.271H122.664z
	 M121.556,4.495h-1.617c0.152-0.781,0.499-1.249,0.977-1.249C121.469,3.246,121.588,3.8,121.556,4.495 M127.496,3.388
	c-0.239-0.847-0.761-1.292-1.64-1.292c-1.412,0-2.617,1.444-2.617,3.746c0,1.435,0.705,2.195,1.791,2.195
	c0.88,0,1.521-0.575,1.966-1.37l-0.847-0.683c-0.239,0.478-0.564,0.836-0.934,0.836c-0.467,0-0.674-0.424-0.674-1.107
	c0-1.164,0.413-2.401,1.12-2.401c0.379,0,0.564,0.305,0.694,0.771L127.496,3.388z M130.711,6.548
	c-0.283,0.184-0.554,0.272-0.805,0.272c-0.303,0-0.445-0.153-0.369-0.565l0.5-2.823h1.151l0.218-1.216h-1.151L130.645,0l-1.4,0.641
	l-0.271,1.574h-0.707l-0.218,1.216h0.706l-0.488,2.758c-0.229,1.303,0.152,1.847,1.075,1.847c0.379,0,0.695-0.098,0.998-0.251
	L130.711,6.548z M135.489,5.549c0.086-0.413,0.143-0.859,0.143-1.249c0-1.228-0.512-2.205-1.707-2.205
	c-1.412,0-2.596,1.455-2.596,3.746c0,1.315,0.63,2.195,1.825,2.195c0.813,0,1.455-0.338,1.965-1.032l-0.815-0.685
	c-0.282,0.337-0.543,0.5-0.955,0.5c-0.5,0-0.805-0.391-0.739-1.271L135.489,5.549L135.489,5.549z M134.381,4.495h-1.619
	c0.153-0.781,0.5-1.249,0.978-1.249C134.294,3.246,134.414,3.8,134.381,4.495 M137.508,8.037c0.381,0,0.815-0.218,1.12-0.512
	l-0.064,0.391h1.281l1.4-7.916l-1.4,0.641l-0.336,1.889c-0.174-0.238-0.5-0.434-0.848-0.434c-1.248,0-2.106,1.227-2.355,2.976
	c-0.055,0.412-0.088,0.77-0.088,1.097C136.216,7.439,136.662,8.037,137.508,8.037 M138.834,6.364
	c-0.186,0.228-0.478,0.478-0.793,0.478c-0.358,0-0.51-0.25-0.51-0.804c0-0.26,0.022-0.597,0.086-1.01
	c0.195-1.335,0.553-1.737,1.01-1.737c0.358,0,0.533,0.239,0.662,0.488L138.834,6.364z"/>
<path fill="#085DAA" d="M135.257,54.104c0.105,0.063,0.26,0.119,0.421,0.119c0.24,0,0.38-0.125,0.38-0.311
	c0-0.169-0.097-0.268-0.341-0.361c-0.297-0.104-0.48-0.259-0.48-0.515c0-0.283,0.233-0.493,0.585-0.493
	c0.188,0,0.322,0.042,0.403,0.088l-0.066,0.192c-0.059-0.033-0.18-0.087-0.344-0.087c-0.248,0-0.342,0.148-0.342,0.271
	c0,0.17,0.11,0.254,0.36,0.352c0.308,0.119,0.463,0.267,0.463,0.533c0,0.28-0.208,0.525-0.637,0.525
	c-0.174,0-0.365-0.053-0.462-0.117L135.257,54.104z"/>
<path fill="#085DAA" d="M138.149,53.591c-0.014-0.253-0.029-0.558-0.027-0.784h-0.008c-0.061,0.213-0.138,0.441-0.228,0.689
	l-0.322,0.882h-0.178l-0.294-0.866c-0.087-0.256-0.159-0.49-0.211-0.707h-0.004c-0.006,0.228-0.02,0.532-0.036,0.803l-0.049,0.778
	h-0.223l0.126-1.815h0.299l0.309,0.878c0.077,0.224,0.139,0.423,0.185,0.612h0.008c0.045-0.184,0.11-0.384,0.191-0.612l0.323-0.878
	h0.3l0.112,1.815h-0.229L138.149,53.591z"/>
<g enable-background="new    ">
	<path fill="#085DAA" d="M165.663,23.757l4.5,12l4.52-12h2.6v14.28h-1.799v-11.88h-0.041l-4.459,11.88h-1.621l-4.459-11.88h-0.041
		v11.88h-1.799v-14.28H165.663z"/>
	<path fill="#085DAA" d="M188.102,38.257c-0.439,0-0.789-0.123-1.05-0.37c-0.26-0.246-0.39-0.649-0.39-1.21
		c-0.467,0.561-1.01,0.964-1.631,1.21c-0.619,0.247-1.289,0.37-2.01,0.37c-0.467,0-0.906-0.05-1.32-0.149
		c-0.412-0.101-0.776-0.267-1.09-0.5c-0.312-0.233-0.56-0.533-0.739-0.9c-0.181-0.366-0.271-0.81-0.271-1.33
		c0-0.586,0.1-1.066,0.301-1.439c0.199-0.373,0.463-0.677,0.789-0.91c0.327-0.233,0.7-0.41,1.121-0.53
		c0.42-0.12,0.85-0.22,1.289-0.3c0.467-0.094,0.91-0.163,1.33-0.21s0.79-0.113,1.11-0.2c0.319-0.087,0.573-0.213,0.76-0.38
		s0.28-0.41,0.28-0.73c0-0.373-0.07-0.673-0.21-0.899s-0.32-0.4-0.54-0.521c-0.221-0.12-0.467-0.2-0.74-0.239
		c-0.273-0.04-0.543-0.061-0.811-0.061c-0.719,0-1.319,0.137-1.799,0.41c-0.48,0.273-0.74,0.79-0.781,1.55h-1.699
		c0.026-0.64,0.16-1.18,0.4-1.62c0.239-0.439,0.56-0.796,0.959-1.069c0.4-0.273,0.86-0.471,1.381-0.591
		c0.52-0.119,1.066-0.18,1.64-0.18c0.467,0,0.931,0.033,1.39,0.1c0.461,0.067,0.877,0.204,1.25,0.41
		c0.373,0.207,0.674,0.497,0.9,0.87c0.227,0.374,0.34,0.86,0.34,1.46v5.32c0,0.4,0.023,0.693,0.07,0.88s0.203,0.28,0.47,0.28
		c0.146,0,0.32-0.033,0.521-0.101v1.32C189.029,38.17,188.623,38.257,188.102,38.257z M185.722,33.047
		c-0.347,0.073-0.71,0.134-1.09,0.181s-0.764,0.1-1.149,0.159c-0.388,0.061-0.734,0.157-1.041,0.29
		c-0.307,0.134-0.557,0.324-0.75,0.57c-0.193,0.247-0.289,0.583-0.289,1.01c0,0.28,0.057,0.518,0.17,0.71
		c0.113,0.193,0.26,0.351,0.439,0.471c0.18,0.119,0.393,0.206,0.641,0.26c0.246,0.054,0.496,0.08,0.75,0.08
		c0.56,0,1.039-0.077,1.439-0.23s0.727-0.347,0.98-0.58c0.253-0.232,0.439-0.486,0.56-0.76s0.181-0.53,0.181-0.77v-1.74
		C186.349,32.857,186.069,32.974,185.722,33.047z"/>
	<path fill="#085DAA" d="M192.502,27.697v1.64h0.039c0.707-1.253,1.827-1.88,3.36-1.88c0.681,0,1.247,0.094,1.7,0.28
		s0.82,0.446,1.1,0.78c0.28,0.333,0.477,0.729,0.59,1.189s0.17,0.97,0.17,1.53v6.8h-1.699v-7c0-0.64-0.188-1.146-0.561-1.52
		c-0.373-0.374-0.887-0.561-1.539-0.561c-0.521,0-0.971,0.08-1.351,0.24s-0.696,0.387-0.95,0.68c-0.254,0.294-0.443,0.637-0.57,1.03
		s-0.189,0.823-0.189,1.29v5.84h-1.7v-10.34H192.502z"/>
	<path fill="#085DAA" d="M209.961,38.257c-0.439,0-0.789-0.123-1.05-0.37c-0.26-0.246-0.39-0.649-0.39-1.21
		c-0.467,0.561-1.01,0.964-1.631,1.21c-0.619,0.247-1.289,0.37-2.01,0.37c-0.467,0-0.906-0.05-1.32-0.149
		c-0.412-0.101-0.776-0.267-1.09-0.5c-0.312-0.233-0.56-0.533-0.739-0.9c-0.181-0.366-0.271-0.81-0.271-1.33
		c0-0.586,0.1-1.066,0.301-1.439c0.199-0.373,0.463-0.677,0.789-0.91c0.327-0.233,0.7-0.41,1.121-0.53
		c0.42-0.12,0.85-0.22,1.289-0.3c0.467-0.094,0.91-0.163,1.33-0.21s0.79-0.113,1.11-0.2c0.319-0.087,0.573-0.213,0.76-0.38
		s0.28-0.41,0.28-0.73c0-0.373-0.07-0.673-0.21-0.899s-0.32-0.4-0.54-0.521c-0.221-0.12-0.467-0.2-0.74-0.239
		c-0.273-0.04-0.543-0.061-0.811-0.061c-0.719,0-1.319,0.137-1.799,0.41c-0.48,0.273-0.74,0.79-0.781,1.55h-1.699
		c0.026-0.64,0.16-1.18,0.4-1.62c0.239-0.439,0.56-0.796,0.959-1.069c0.4-0.273,0.86-0.471,1.381-0.591
		c0.52-0.119,1.066-0.18,1.64-0.18c0.467,0,0.931,0.033,1.39,0.1c0.461,0.067,0.877,0.204,1.25,0.41
		c0.373,0.207,0.674,0.497,0.9,0.87c0.227,0.374,0.34,0.86,0.34,1.46v5.32c0,0.4,0.023,0.693,0.07,0.88s0.203,0.28,0.47,0.28
		c0.146,0,0.32-0.033,0.521-0.101v1.32C210.888,38.17,210.482,38.257,209.961,38.257z M207.582,33.047
		c-0.347,0.073-0.71,0.134-1.09,0.181s-0.764,0.1-1.149,0.159c-0.388,0.061-0.734,0.157-1.041,0.29
		c-0.307,0.134-0.557,0.324-0.75,0.57c-0.193,0.247-0.289,0.583-0.289,1.01c0,0.28,0.057,0.518,0.17,0.71
		c0.113,0.193,0.26,0.351,0.439,0.471c0.18,0.119,0.393,0.206,0.641,0.26c0.246,0.054,0.496,0.08,0.75,0.08
		c0.56,0,1.039-0.077,1.439-0.23s0.727-0.347,0.98-0.58c0.253-0.232,0.439-0.486,0.56-0.76s0.181-0.53,0.181-0.77v-1.74
		C208.208,32.857,207.928,32.974,207.582,33.047z"/>
	<path fill="#085DAA" d="M220.522,40.957c-0.773,0.84-1.987,1.26-3.641,1.26c-0.48,0-0.97-0.053-1.47-0.16
		c-0.5-0.106-0.954-0.279-1.36-0.52s-0.743-0.554-1.01-0.94c-0.268-0.387-0.414-0.859-0.439-1.42h1.699
		c0.014,0.307,0.11,0.567,0.29,0.78c0.181,0.213,0.399,0.387,0.66,0.521c0.26,0.133,0.543,0.229,0.851,0.29
		c0.307,0.06,0.6,0.09,0.879,0.09c0.561,0,1.033-0.098,1.42-0.29c0.387-0.193,0.707-0.46,0.961-0.8
		c0.253-0.341,0.436-0.75,0.55-1.23c0.112-0.48,0.17-1.007,0.17-1.58v-0.68h-0.04c-0.293,0.64-0.736,1.109-1.33,1.41
		c-0.594,0.3-1.224,0.449-1.891,0.449c-0.773,0-1.446-0.14-2.02-0.42c-0.573-0.279-1.053-0.656-1.439-1.13
		c-0.387-0.473-0.678-1.026-0.871-1.66c-0.193-0.633-0.289-1.303-0.289-2.01c0-0.613,0.08-1.243,0.24-1.89s0.426-1.233,0.799-1.76
		c0.374-0.527,0.867-0.961,1.48-1.301s1.367-0.51,2.26-0.51c0.654,0,1.254,0.144,1.801,0.43c0.547,0.287,0.973,0.717,1.279,1.29
		h0.021v-1.479h1.601v9.46C221.682,38.851,221.294,40.117,220.522,40.957z M218.352,36.307c0.393-0.232,0.709-0.539,0.949-0.92
		c0.24-0.38,0.416-0.81,0.53-1.29c0.112-0.479,0.17-0.96,0.17-1.439c0-0.453-0.054-0.9-0.16-1.34c-0.106-0.44-0.276-0.837-0.51-1.19
		c-0.233-0.353-0.537-0.637-0.91-0.85c-0.374-0.213-0.827-0.32-1.36-0.32c-0.547,0-1.014,0.104-1.399,0.311
		c-0.388,0.206-0.704,0.483-0.95,0.829c-0.247,0.348-0.427,0.747-0.54,1.2c-0.113,0.454-0.17,0.927-0.17,1.42
		c0,0.467,0.046,0.934,0.14,1.4s0.254,0.89,0.48,1.27c0.227,0.381,0.526,0.688,0.9,0.92c0.373,0.234,0.84,0.351,1.399,0.351
		S217.958,36.541,218.352,36.307z"/>
	<path fill="#085DAA" d="M231.561,37.377c-0.773,0.587-1.746,0.88-2.92,0.88c-0.826,0-1.543-0.133-2.15-0.399
		c-0.605-0.267-1.116-0.641-1.529-1.12c-0.414-0.48-0.724-1.054-0.93-1.72c-0.207-0.667-0.324-1.394-0.35-2.181
		c0-0.786,0.119-1.507,0.359-2.16c0.24-0.652,0.576-1.22,1.01-1.699c0.434-0.48,0.947-0.854,1.54-1.12s1.243-0.4,1.95-0.4
		c0.92,0,1.684,0.19,2.29,0.57s1.093,0.863,1.46,1.45s0.62,1.227,0.76,1.92c0.141,0.693,0.197,1.354,0.17,1.979h-7.74
		c-0.014,0.453,0.041,0.884,0.16,1.29c0.12,0.407,0.313,0.767,0.58,1.08s0.607,0.563,1.02,0.75c0.414,0.187,0.9,0.28,1.461,0.28
		c0.72,0,1.31-0.167,1.77-0.5c0.461-0.333,0.764-0.84,0.91-1.521h1.68C232.834,35.917,232.334,36.791,231.561,37.377z
		 M231.151,30.737c-0.152-0.36-0.359-0.67-0.619-0.931c-0.26-0.26-0.567-0.466-0.92-0.619c-0.354-0.153-0.744-0.23-1.17-0.23
		c-0.44,0-0.838,0.077-1.19,0.23c-0.354,0.153-0.657,0.363-0.91,0.63s-0.453,0.576-0.601,0.93c-0.146,0.354-0.232,0.73-0.26,1.13
		h5.94C231.395,31.478,231.305,31.097,231.151,30.737z"/>
	<path fill="#085DAA" d="M240.481,31.677v1.601h-5.779v-1.601H240.481z"/>
	<path fill="#085DAA" d="M249.021,23.757l5.58,14.28H252.5l-1.56-4.3h-6.04l-1.6,4.3h-1.94l5.56-14.28H249.021z M250.34,32.137
		l-2.379-6.659h-0.041l-2.42,6.659H250.34z"/>
	<path fill="#085DAA" d="M261.901,29.497c-0.427-0.36-1-0.54-1.72-0.54c-0.614,0-1.127,0.113-1.54,0.34
		c-0.414,0.228-0.744,0.527-0.99,0.9c-0.247,0.373-0.424,0.804-0.529,1.29c-0.107,0.486-0.16,0.99-0.16,1.51
		c0,0.48,0.057,0.947,0.17,1.4s0.289,0.856,0.529,1.21s0.553,0.637,0.94,0.85c0.386,0.214,0.847,0.32,1.38,0.32
		c0.84,0,1.496-0.221,1.97-0.66c0.474-0.44,0.763-1.061,0.87-1.86h1.74c-0.188,1.28-0.664,2.268-1.43,2.96
		c-0.768,0.693-1.811,1.04-3.131,1.04c-0.787,0-1.482-0.127-2.09-0.38c-0.606-0.253-1.113-0.613-1.52-1.08
		c-0.407-0.467-0.714-1.022-0.92-1.67c-0.207-0.646-0.311-1.356-0.311-2.13s0.1-1.496,0.301-2.17c0.199-0.673,0.502-1.26,0.91-1.76
		c0.406-0.5,0.916-0.894,1.529-1.181c0.613-0.286,1.326-0.43,2.141-0.43c0.586,0,1.136,0.07,1.649,0.21
		c0.513,0.14,0.967,0.357,1.36,0.65c0.393,0.293,0.717,0.663,0.97,1.109c0.253,0.447,0.413,0.978,0.479,1.591h-1.76
		C262.608,30.364,262.328,29.857,261.901,29.497z"/>
	<path fill="#085DAA" d="M270.881,27.697v1.5h-2.061v6.42c0,0.2,0.017,0.36,0.05,0.479c0.033,0.12,0.097,0.214,0.19,0.28
		c0.093,0.067,0.223,0.11,0.39,0.13c0.167,0.021,0.384,0.03,0.649,0.03h0.781v1.5h-1.301c-0.439,0-0.816-0.03-1.13-0.09
		c-0.313-0.061-0.567-0.17-0.761-0.33s-0.336-0.387-0.43-0.68c-0.094-0.294-0.14-0.681-0.14-1.16v-6.58h-1.76v-1.5h1.76v-3.101h1.7
		v3.101H270.881z"/>
	<path fill="#085DAA" d="M278.26,31.677v1.601h-5.779v-1.601H278.26z"/>
	<path fill="#085DAA" d="M287.97,25.707c-0.634-0.46-1.443-0.689-2.431-0.689c-0.399,0-0.793,0.039-1.18,0.119
		s-0.729,0.214-1.029,0.4c-0.301,0.187-0.541,0.437-0.721,0.75s-0.27,0.703-0.27,1.17c0,0.44,0.13,0.797,0.391,1.07
		c0.26,0.273,0.605,0.497,1.039,0.67s0.924,0.316,1.471,0.43c0.546,0.113,1.103,0.237,1.67,0.37c0.566,0.134,1.123,0.29,1.67,0.47
		c0.547,0.181,1.036,0.424,1.47,0.73c0.433,0.307,0.78,0.693,1.04,1.16s0.391,1.053,0.391,1.76c0,0.76-0.171,1.41-0.511,1.95
		s-0.776,0.979-1.31,1.319c-0.533,0.341-1.131,0.587-1.791,0.74c-0.659,0.153-1.316,0.23-1.969,0.23
		c-0.801,0-1.558-0.101-2.271-0.301c-0.714-0.199-1.341-0.503-1.88-0.909c-0.54-0.407-0.967-0.927-1.28-1.561
		c-0.313-0.633-0.47-1.383-0.47-2.25h1.8c0,0.601,0.116,1.117,0.351,1.55c0.232,0.434,0.539,0.79,0.92,1.07
		c0.379,0.28,0.822,0.487,1.33,0.62c0.506,0.134,1.025,0.2,1.56,0.2c0.427,0,0.856-0.04,1.29-0.12s0.822-0.217,1.17-0.41
		c0.346-0.193,0.627-0.456,0.84-0.79c0.213-0.333,0.32-0.76,0.32-1.28c0-0.493-0.131-0.893-0.391-1.199s-0.606-0.557-1.039-0.75
		c-0.434-0.193-0.924-0.351-1.471-0.471s-1.104-0.243-1.67-0.37c-0.566-0.126-1.123-0.272-1.67-0.439s-1.037-0.387-1.471-0.66
		c-0.433-0.273-0.779-0.627-1.039-1.06c-0.26-0.434-0.391-0.977-0.391-1.631c0-0.72,0.146-1.343,0.44-1.869
		c0.293-0.527,0.683-0.96,1.17-1.301c0.486-0.34,1.04-0.593,1.66-0.76c0.62-0.166,1.257-0.25,1.909-0.25
		c0.734,0,1.414,0.087,2.041,0.26c0.626,0.174,1.176,0.447,1.649,0.82s0.847,0.844,1.12,1.41s0.424,1.243,0.45,2.03h-1.8
		C288.973,26.91,288.604,26.167,287.97,25.707z"/>
	<path fill="#085DAA" d="M301.44,38.257c-0.439,0-0.789-0.123-1.05-0.37c-0.26-0.246-0.39-0.649-0.39-1.21
		c-0.467,0.561-1.01,0.964-1.631,1.21c-0.619,0.247-1.289,0.37-2.01,0.37c-0.467,0-0.906-0.05-1.32-0.149
		c-0.412-0.101-0.776-0.267-1.09-0.5c-0.312-0.233-0.56-0.533-0.739-0.9c-0.181-0.366-0.271-0.81-0.271-1.33
		c0-0.586,0.1-1.066,0.301-1.439c0.199-0.373,0.463-0.677,0.789-0.91c0.327-0.233,0.7-0.41,1.121-0.53
		c0.42-0.12,0.85-0.22,1.289-0.3c0.467-0.094,0.91-0.163,1.33-0.21s0.79-0.113,1.11-0.2c0.319-0.087,0.573-0.213,0.76-0.38
		s0.28-0.41,0.28-0.73c0-0.373-0.07-0.673-0.21-0.899s-0.32-0.4-0.54-0.521c-0.221-0.12-0.467-0.2-0.74-0.239
		c-0.273-0.04-0.543-0.061-0.811-0.061c-0.719,0-1.319,0.137-1.799,0.41c-0.48,0.273-0.74,0.79-0.781,1.55h-1.699
		c0.026-0.64,0.16-1.18,0.4-1.62c0.239-0.439,0.56-0.796,0.959-1.069c0.4-0.273,0.86-0.471,1.381-0.591
		c0.52-0.119,1.066-0.18,1.64-0.18c0.467,0,0.931,0.033,1.39,0.1c0.461,0.067,0.877,0.204,1.25,0.41
		c0.373,0.207,0.674,0.497,0.9,0.87c0.227,0.374,0.34,0.86,0.34,1.46v5.32c0,0.4,0.023,0.693,0.07,0.88s0.203,0.28,0.47,0.28
		c0.146,0,0.32-0.033,0.521-0.101v1.32C302.367,38.17,301.96,38.257,301.44,38.257z M299.06,33.047
		c-0.347,0.073-0.71,0.134-1.09,0.181s-0.764,0.1-1.149,0.159c-0.388,0.061-0.734,0.157-1.041,0.29
		c-0.307,0.134-0.557,0.324-0.75,0.57c-0.193,0.247-0.289,0.583-0.289,1.01c0,0.28,0.057,0.518,0.17,0.71
		c0.113,0.193,0.26,0.351,0.439,0.471c0.18,0.119,0.393,0.206,0.641,0.26c0.246,0.054,0.496,0.08,0.75,0.08
		c0.56,0,1.039-0.077,1.439-0.23s0.727-0.347,0.98-0.58c0.253-0.232,0.439-0.486,0.56-0.76s0.181-0.53,0.181-0.77v-1.74
		C299.687,32.857,299.407,32.974,299.06,33.047z"/>
	<path fill="#085DAA" d="M307.081,38.037l-3.841-10.34h1.9l2.899,8.62h0.041l2.819-8.62h1.78l-3.78,10.34H307.081z"/>
	<path fill="#085DAA" d="M321.56,37.377c-0.773,0.587-1.747,0.88-2.92,0.88c-0.827,0-1.544-0.133-2.15-0.399s-1.116-0.641-1.53-1.12
		c-0.413-0.48-0.723-1.054-0.93-1.72c-0.207-0.667-0.323-1.394-0.35-2.181c0-0.786,0.119-1.507,0.359-2.16
		c0.24-0.652,0.577-1.22,1.01-1.699c0.434-0.48,0.947-0.854,1.541-1.12c0.593-0.267,1.242-0.4,1.949-0.4
		c0.92,0,1.684,0.19,2.291,0.57c0.605,0.38,1.092,0.863,1.459,1.45s0.621,1.227,0.76,1.92c0.141,0.693,0.197,1.354,0.17,1.979
		h-7.739c-0.014,0.453,0.04,0.884,0.16,1.29c0.12,0.407,0.313,0.767,0.579,1.08c0.268,0.313,0.607,0.563,1.021,0.75
		s0.9,0.28,1.46,0.28c0.721,0,1.311-0.167,1.77-0.5c0.461-0.333,0.764-0.84,0.91-1.521h1.681
		C322.833,35.917,322.333,36.791,321.56,37.377z M321.15,30.737c-0.153-0.36-0.36-0.67-0.62-0.931
		c-0.26-0.26-0.566-0.466-0.92-0.619s-0.743-0.23-1.17-0.23c-0.439,0-0.837,0.077-1.189,0.23c-0.354,0.153-0.657,0.363-0.91,0.63
		c-0.254,0.267-0.453,0.576-0.601,0.93c-0.146,0.354-0.233,0.73-0.26,1.13h5.94C321.393,31.478,321.303,31.097,321.15,30.737z"/>
</g>
</svg>
